<svg preserveAspectRatio="none" width="100%" height="100%" overflow="visible" style="display: block;" viewBox="0 0 40 40" fill="none" xmlns="http://www.w3.org/2000/svg">
<g id="bedtime_24dp_4B47B8_FILL1_wght400_GRAD0_opsz24 1">
<path id="Vector" d="M20.1667 36.6667C17.8333 36.6667 15.6458 36.2222 13.6042 35.3333C11.5625 34.4444 9.78472 33.2431 8.27083 31.7292C6.75694 30.2153 5.55556 28.4375 4.66667 26.3958C3.77778 24.3542 3.33333 22.1667 3.33333 19.8333C3.33333 15.7778 4.625 12.2014 7.20833 9.10417C9.79167 6.00694 13.0833 4.08333 17.0833 3.33333C16.5833 6.08333 16.7361 8.77083 17.5417 11.3958C18.3472 14.0208 19.7361 16.3194 21.7083 18.2917C23.6806 20.2639 25.9792 21.6528 28.6042 22.4583C31.2292 23.2639 33.9167 23.4167 36.6667 22.9167C35.9444 26.9167 34.0278 30.2083 30.9167 32.7917C27.8056 35.375 24.2222 36.6667 20.1667 36.6667Z" fill="#4B47B8"/>
</g>
</svg>
