<svg width="32" height="32" viewBox="0 0 32 32" fill="none" xmlns="http://www.w3.org/2000/svg">
<path d="M16 15.9907C15.7348 15.9907 15.4804 16.096 15.2929 16.2836C15.1053 16.4711 15 16.7255 15 16.9907V16.9987C15 17.5507 15.448 17.9987 16 17.9987H16.008C16.2732 17.9987 16.5276 17.8933 16.7151 17.7058C16.9026 17.5182 17.008 17.2639 17.008 16.9987V16.9907C17.008 16.7255 16.9026 16.4711 16.7151 16.2836C16.5276 16.096 16.2732 15.9907 16.008 15.9907H16ZM16 21.992C15.7348 21.992 15.4804 22.0974 15.2929 22.2849C15.1053 22.4724 15 22.7268 15 22.992V22.9987C15 23.5507 15.4466 23.9987 16 23.9987H16.0066C16.2719 23.9987 16.5262 23.8933 16.7138 23.7058C16.9013 23.5182 17.0066 23.2639 17.0066 22.9987V22.992C17.0066 22.7268 16.9013 22.4724 16.7138 22.2849C16.5262 22.0974 16.2719 21.992 16.0066 21.992H16ZM11.9986 22.992C11.9986 22.7268 12.104 22.4724 12.2915 22.2849C12.4791 22.0974 12.7334 21.992 12.9986 21.992H13.0066C13.2719 21.992 13.5262 22.0974 13.7138 22.2849C13.9013 22.4724 14.0066 22.7268 14.0066 22.992V23C14.0066 23.2652 13.9013 23.5196 13.7138 23.7071C13.5262 23.8946 13.2719 24 13.0066 24H12.9986C12.7334 24 12.4791 23.8946 12.2915 23.7071C12.104 23.5196 11.9986 23.2652 11.9986 23V22.992ZM9.99865 21.992C9.73343 21.992 9.47908 22.0974 9.29154 22.2849C9.104 22.4724 8.99865 22.7268 8.99865 22.992V22.9987C8.99865 23.5507 9.44665 23.9987 9.99865 23.9987H10.0053C10.2705 23.9987 10.5249 23.8933 10.7124 23.7058C10.9 23.5182 11.0053 23.2639 11.0053 22.9987V22.992C11.0053 22.7268 10.9 22.4724 10.7124 22.2849C10.5249 22.0974 10.2705 21.992 10.0053 21.992H9.99865ZM17.9986 19.996C17.9986 19.7308 18.104 19.4764 18.2915 19.2889C18.4791 19.1014 18.7334 18.996 18.9986 18.996H19.0066C19.2719 18.996 19.5262 19.1014 19.7138 19.2889C19.9013 19.4764 20.0066 19.7308 20.0066 19.996V20.0027C20.0066 20.2679 19.9013 20.5222 19.7138 20.7098C19.5262 20.8973 19.2719 21.0027 19.0066 21.0027H18.9986C18.7334 21.0027 18.4791 20.8973 18.2915 20.7098C18.104 20.5222 17.9986 20.2679 17.9986 20.0027V19.996ZM19 21.992C18.7348 21.992 18.4804 22.0974 18.2929 22.2849C18.1053 22.4724 18 22.7268 18 22.992V23C18 23.552 18.4466 24 19 24H19.0066C19.2719 24 19.5262 23.8946 19.7138 23.7071C19.9013 23.5196 20.0066 23.2652 20.0066 23V22.992C20.0066 22.7268 19.9013 22.4724 19.7138 22.2849C19.5262 22.0974 19.2719 21.992 19.0066 21.992H19ZM21 19.9933C21 19.7281 21.1053 19.4738 21.2929 19.2862C21.4804 19.0987 21.7348 18.9933 22 18.9933H22.0066C22.2719 18.9933 22.5262 19.0987 22.7138 19.2862C22.9013 19.4738 23.0066 19.7281 23.0066 19.9933V20.0013C23.0066 20.2666 22.9013 20.5209 22.7138 20.7084C22.5262 20.896 22.2719 21.0013 22.0066 21.0013H22C21.7348 21.0013 21.4804 20.896 21.2929 20.7084C21.1053 20.5209 21 20.2666 21 20.0013V19.9933ZM17.9973 16.9907C17.9973 16.7255 18.1027 16.4711 18.2902 16.2836C18.4777 16.096 18.7321 15.9907 18.9973 15.9907H21.9973C22.2625 15.9907 22.5169 16.096 22.7044 16.2836C22.892 16.4711 22.9973 16.7255 22.9973 16.9907C22.9973 17.2559 22.892 17.5102 22.7044 17.6978C22.5169 17.8853 22.2625 17.9907 21.9973 17.9907H18.9973C18.7321 17.9907 18.4777 17.8853 18.2902 17.6978C18.1027 17.5102 17.9973 17.2559 17.9973 16.9907ZM8.99731 19.9907C8.99731 19.7255 9.10267 19.4711 9.29021 19.2836C9.47774 19.096 9.7321 18.9907 9.99731 18.9907H15.9973C16.2625 18.9907 16.5169 19.096 16.7044 19.2836C16.892 19.4711 16.9973 19.7255 16.9973 19.9907C16.9973 20.2559 16.892 20.5102 16.7044 20.6978C16.5169 20.8853 16.2625 20.9907 15.9973 20.9907H9.99731C9.7321 20.9907 9.47774 20.8853 9.29021 20.6978C9.10267 20.5102 8.99731 20.2559 8.99731 19.9907Z" fill="#4A5C38"/>
<path fill-rule="evenodd" clip-rule="evenodd" d="M24 3.99067C24 3.72545 23.8946 3.4711 23.7071 3.28356C23.5196 3.09603 23.2652 2.99067 23 2.99067C22.7348 2.99067 22.4804 3.09603 22.2929 3.28356C22.1053 3.4711 22 3.72545 22 3.99067V5.99067H9.99998V3.992C9.99998 3.72679 9.89463 3.47243 9.70709 3.2849C9.51955 3.09736 9.2652 2.992 8.99998 2.992C8.73476 2.992 8.48041 3.09736 8.29287 3.2849C8.10534 3.47243 7.99998 3.72679 7.99998 3.992V5.988H6.99731C5.93645 5.988 4.91903 6.40943 4.16889 7.15958C3.41874 7.90972 2.99731 8.92714 2.99731 9.988V24.9907C2.99731 26.0515 3.41874 27.069 4.16889 27.8191C4.91903 28.5692 5.93645 28.9907 6.99731 28.9907H24.9973C26.0582 28.9907 27.0756 28.5692 27.8257 27.8191C28.5759 27.069 28.9973 26.0515 28.9973 24.9907V9.98934C28.9973 8.92847 28.5759 7.91105 27.8257 7.16091C27.0756 6.41076 26.0582 5.98934 24.9973 5.98934H24V3.99067ZM4.99731 24.9907V14.9907C4.99731 14.4602 5.20803 13.9515 5.5831 13.5765C5.95817 13.2014 6.46688 12.9907 6.99731 12.9907H24.9973C25.5277 12.9907 26.0365 13.2014 26.4115 13.5765C26.7866 13.9515 26.9973 14.4602 26.9973 14.9907V24.9907C26.9973 25.5211 26.7866 26.0298 26.4115 26.4049C26.0365 26.78 25.5277 26.9907 24.9973 26.9907H6.99731C6.46688 26.9907 5.95817 26.78 5.5831 26.4049C5.20803 26.0298 4.99731 25.5211 4.99731 24.9907Z" fill="#4A5C38"/>
</svg>
