<svg width="32" height="32" viewBox="0 0 32 32" fill="none" xmlns="http://www.w3.org/2000/svg">
<path d="M26.9973 14.9894L26.9869 14.7915C26.9414 14.3337 26.7395 13.9035 26.4114 13.5753C26.0363 13.2003 25.5278 12.9894 24.9973 12.9894H6.99731C6.46688 12.9894 5.95832 13.2003 5.58325 13.5753C5.2082 13.9504 4.99731 14.459 4.99731 14.9894V24.992C4.99802 25.5215 5.20881 26.029 5.58325 26.4035C5.95832 26.7785 6.4669 26.9894 6.99731 26.9894H24.9973C25.5277 26.9894 26.0363 26.7785 26.4114 26.4035C26.7864 26.0284 26.9973 25.5198 26.9973 24.9894V14.9894ZM13.0051 21.9907L13.108 21.9959C13.612 22.0473 14.0051 22.4731 14.0051 22.9907V22.9985C14.0051 23.5508 13.5574 23.9985 13.0051 23.9985H12.9999C12.4819 23.9985 12.056 23.6047 12.0051 23.1001C12.0012 23.0641 11.9986 23.0277 11.9986 22.9907C11.9986 22.4384 12.4463 21.9907 12.9986 21.9907H13.0051ZM19.0064 21.9907C19.5587 21.9907 20.0064 22.4384 20.0064 22.9907V22.9985C20.0064 23.5508 19.5587 23.9985 19.0064 23.9985H18.9986C18.4463 23.9985 17.9986 23.5508 17.9986 22.9985V22.9907C17.9986 22.4384 18.4463 21.9907 18.9986 21.9907H19.0064ZM10.0051 21.9907C10.5574 21.9907 11.0051 22.4384 11.0051 22.9907V22.9972C11.0051 23.5495 10.5574 23.9972 10.0051 23.9972H9.99731C9.44503 23.9972 8.99731 23.5495 8.99731 22.9972V22.9907C8.99731 22.4384 9.44503 21.9907 9.99731 21.9907H10.0051ZM16.0064 21.9894C16.5587 21.9894 17.0064 22.4371 17.0064 22.9894V22.9972C17.0064 23.5495 16.5587 23.9972 16.0064 23.9972H15.9986C15.4463 23.9972 14.9986 23.5495 14.9986 22.9972V22.9894C14.9986 22.4371 15.4463 21.9894 15.9986 21.9894H16.0064ZM19.0051 18.9946C19.5574 18.9946 20.0051 19.4423 20.0051 19.9946V20.0011C20.0051 20.5534 19.5574 21.0011 19.0051 21.0011H18.9986C18.4463 21.0011 17.9986 20.5534 17.9986 20.0011V19.9946C17.9987 19.4424 18.4464 18.9946 18.9986 18.9946H19.0051ZM22.0064 18.9933C22.5587 18.9933 23.0064 19.441 23.0064 19.9933V19.9998C23.0064 20.5521 22.5587 20.9998 22.0064 20.9998H21.9999C21.5234 20.9998 21.113 20.6637 21.0195 20.1964L21.0181 20.1899C20.9594 19.8962 21.0353 19.5908 21.2252 19.3592C21.4151 19.1275 21.6991 18.9933 21.9986 18.9933H22.0064ZM15.9973 18.9894C16.5496 18.9894 16.9973 19.4371 16.9973 19.9894C16.9973 20.5416 16.5496 20.9894 15.9973 20.9894H9.99731C9.44505 20.9894 8.99735 20.5416 8.99731 19.9894C8.99731 19.4371 9.44503 18.9894 9.99731 18.9894H15.9973ZM16.0064 15.9894C16.5587 15.9894 17.0064 16.4371 17.0064 16.9894V16.9972C17.0064 17.5495 16.5587 17.9972 16.0064 17.9972H15.9999C15.4477 17.9972 14.9999 17.5495 14.9999 16.9972V16.9894C14.9999 16.4371 15.4477 15.9894 15.9999 15.9894H16.0064ZM21.9973 15.9894C22.5496 15.9894 22.9973 16.4371 22.9973 16.9894C22.9973 17.5416 22.5496 17.9894 21.9973 17.9894H18.9973C18.4451 17.9894 17.9973 17.5416 17.9973 16.9894C17.9973 16.4371 18.445 15.9894 18.9973 15.9894H21.9973ZM26.9973 9.98809C26.9973 9.45768 26.7864 8.94909 26.4114 8.57403C26.0363 8.19896 25.5278 7.98809 24.9973 7.98809H23.0767C23.0514 7.99002 23.0258 7.992 22.9999 7.992C22.9745 7.992 22.9494 7.98996 22.9244 7.98809H9.07674C9.05138 7.99002 9.02577 7.992 8.99992 7.992C8.97448 7.992 8.94935 7.98996 8.9244 7.98809H6.99731C6.46688 7.98809 5.95832 8.19896 5.58325 8.57403C5.20821 8.9491 4.99731 9.45768 4.99731 9.98809V11.5298C5.60069 11.181 6.28831 10.9894 6.99731 10.9894H24.9973C25.7063 10.9894 26.3939 11.181 26.9973 11.5298V9.98809ZM28.9973 24.9894L28.9778 25.3852C28.8868 26.3007 28.4817 27.1613 27.8254 27.8175C27.0753 28.5676 26.0582 28.9894 24.9973 28.9894H6.99731C5.93646 28.9894 4.91933 28.5676 4.16919 27.8175C3.51294 27.1613 3.10787 26.3007 3.01685 25.3852L2.99731 24.9894V9.98809C2.99731 8.92725 3.41907 7.91011 4.16919 7.15997C4.91934 6.40982 5.93645 5.98809 6.99731 5.98809H7.99992V3.992C7.99992 3.43973 8.44766 2.99203 8.99992 2.992C9.5522 2.992 9.99992 3.43971 9.99992 3.992V5.98809H21.9999V3.992C21.9999 3.43973 22.4477 2.99203 22.9999 2.992C23.5522 2.992 23.9999 3.43971 23.9999 3.992V5.98809H24.9973C26.0582 5.98809 27.0753 6.40982 27.8254 7.15997C28.5756 7.91011 28.9973 8.92725 28.9973 9.98809V24.9894Z" fill="#333333"/>
</svg>
