<svg width="32" height="32" viewBox="0 0 32 32" fill="none" xmlns="http://www.w3.org/2000/svg">
<path d="M9 17.5C9 17.2243 8.77572 17 8.5 17H5.5C5.22428 17 5 17.2243 5 17.5V26.5C5 26.6326 5.05207 26.7604 5.14583 26.8542C5.2396 26.9479 5.36739 27 5.5 27H8.5C8.77572 27 9 26.7757 9 26.5V17.5ZM18 11.5C18 11.2243 17.7757 11 17.5 11H14.5C14.2243 11 14 11.2243 14 11.5V26.5C14 26.6326 14.0521 26.7604 14.1458 26.8542C14.2396 26.9479 14.3674 27 14.5 27H17.5C17.7757 27 18 26.7757 18 26.5V11.5ZM27 5.5C27 5.22428 26.7757 5 26.5 5H23.5C23.2243 5 23 5.22428 23 5.5V26.5C23 26.6326 23.0521 26.7604 23.1458 26.8542C23.2396 26.9479 23.3674 27 23.5 27H26.5C26.7757 27 27 26.7757 27 26.5V5.5ZM11 26.5C11 27.8803 9.88028 29 8.5 29H5.5C4.83696 29 4.20061 28.7371 3.73177 28.2682C3.26293 27.7994 3 27.163 3 26.5V17.5C3 16.1197 4.11972 15 5.5 15H8.5C9.88028 15 11 16.1197 11 17.5V26.5ZM20 26.5C20 27.8803 18.8803 29 17.5 29H14.5C13.837 29 13.2006 28.7371 12.7318 28.2682C12.2629 27.7994 12 27.163 12 26.5V11.5C12 10.1197 13.1197 9 14.5 9H17.5C18.8803 9 20 10.1197 20 11.5V26.5ZM29 26.5C29 27.8803 27.8803 29 26.5 29H23.5C22.837 29 22.2006 28.7371 21.7318 28.2682C21.2629 27.7994 21 27.163 21 26.5V5.5C21 4.11972 22.1197 3 23.5 3H26.5C27.8803 3 29 4.11972 29 5.5V26.5Z" fill="#333333"/>
</svg>
