<svg width="32" height="32" viewBox="0 0 32 32" fill="none" xmlns="http://www.w3.org/2000/svg">
<path d="M24.5 3C23.12 3 22 4.12 22 5.5V26.5C22 27.88 23.12 29 24.5 29H25.5C26.88 29 28 27.88 28 26.5V5.5C28 4.11867 26.88 3 25.5 3H24.5ZM13 11.5C13 10.1187 14.12 9 15.5 9H16.5C17.8813 9 19 10.12 19 11.5V26.5C19 27.88 17.88 29 16.5 29H15.5C14.837 29 14.2011 28.7366 13.7322 28.2678C13.2634 27.7989 13 27.163 13 26.5V11.5ZM4 17.5C4 16.1187 5.12 15 6.5 15H7.5C8.88133 15 10 16.12 10 17.5V26.5C10 27.88 8.88 29 7.5 29H6.5C5.83696 29 5.20107 28.7366 4.73223 28.2678C4.26339 27.7989 4 27.163 4 26.5V17.5Z" fill="#4A5C38"/>
</svg>
