<svg width="32" height="32" viewBox="0 0 32 32" fill="none" xmlns="http://www.w3.org/2000/svg">
<path d="M22.672 13.876C22.856 14.456 22.384 14.9987 21.776 14.9987H17.156C16.9804 14.9988 16.8078 14.9526 16.6556 14.8649C16.5035 14.7771 16.3772 14.6508 16.2893 14.4987L13.98 10.4987C13.6747 9.97067 13.9093 9.28933 14.504 9.16C16.2083 8.78742 17.9902 9.06439 19.501 9.93667C21.0118 10.809 22.1426 12.2138 22.672 13.876ZM10.8267 11.2853C11.236 10.8347 11.944 10.972 12.248 11.4987L14.5573 15.4987C14.6451 15.6507 14.6913 15.8231 14.6913 15.9987C14.6913 16.1742 14.6451 16.3466 14.5573 16.4987L12.248 20.4987C11.9427 21.028 11.2347 21.1653 10.8253 20.7133C9.64888 19.4258 8.99762 17.7441 9.00001 16C8.99765 14.2553 9.64942 12.573 10.8267 11.2853ZM14.504 22.84C13.908 22.7093 13.6733 22.0293 13.9787 21.5013L16.2893 17.4987C16.3772 17.3466 16.5035 17.2203 16.6556 17.1325C16.8078 17.0447 16.9804 16.9986 17.156 16.9987H21.776C22.3853 16.9987 22.856 17.5413 22.672 18.1213C22.1431 19.7841 21.0126 21.1895 19.5017 22.0623C17.9909 22.9351 16.2086 23.2124 14.504 22.84Z" fill="#4A5C38"/>
<path fill-rule="evenodd" clip-rule="evenodd" d="M27.9999 17C28.2651 17 28.5195 16.8946 28.707 16.7071C28.8945 16.5196 28.9999 16.2652 28.9999 16C28.9999 15.7348 28.8945 15.4804 28.707 15.2929C28.5195 15.1054 28.2651 15 27.9999 15H26.9559C26.9014 14.3891 26.7957 13.7839 26.6399 13.1907L27.6186 12.8347C27.742 12.7898 27.8554 12.721 27.9522 12.6322C28.0491 12.5435 28.1275 12.4366 28.1831 12.3175C28.2386 12.1985 28.2701 12.0697 28.2759 11.9384C28.2816 11.8072 28.2615 11.6761 28.2166 11.5527C28.1716 11.4292 28.1029 11.3158 28.0141 11.219C27.9254 11.1221 27.8184 11.0437 27.6994 10.9882C27.5804 10.9326 27.4515 10.9011 27.3203 10.8953C27.1891 10.8896 27.058 10.9098 26.9346 10.9547L25.9546 11.312C25.6932 10.7575 25.3859 10.2259 25.0359 9.72267L25.8359 9.052C25.9387 8.96831 26.0239 8.86502 26.0864 8.74811C26.149 8.63121 26.1876 8.50304 26.2002 8.37106C26.2127 8.23907 26.1989 8.10591 26.1595 7.97931C26.1201 7.85272 26.056 7.73522 25.9708 7.63365C25.8855 7.53208 25.781 7.44848 25.6632 7.38769C25.5453 7.3269 25.4166 7.29015 25.2844 7.27958C25.1523 7.269 25.0193 7.28481 24.8934 7.32609C24.7674 7.36736 24.6508 7.43328 24.5506 7.52L23.7506 8.192C23.3156 7.76044 22.8455 7.36575 22.3452 7.012L22.8666 6.108C22.9333 5.99423 22.9768 5.86839 22.9947 5.73773C23.0125 5.60706 23.0044 5.47415 22.9707 5.34665C22.9369 5.21915 22.8783 5.09958 22.7982 4.99482C22.7181 4.89006 22.6181 4.80218 22.5039 4.73624C22.3897 4.6703 22.2635 4.6276 22.1328 4.6106C22.002 4.5936 21.8691 4.60264 21.7419 4.63719C21.6146 4.67174 21.4954 4.73113 21.3912 4.81193C21.287 4.89274 21.1997 4.99336 21.1346 5.108L20.6146 6.00933C20.0576 5.75231 19.48 5.54268 18.8879 5.38267L19.0692 4.356C19.1095 4.09731 19.0468 3.83313 18.8944 3.6202C18.7421 3.40727 18.5124 3.26258 18.2545 3.21719C17.9967 3.1718 17.7313 3.22934 17.5154 3.37745C17.2995 3.52556 17.1503 3.75243 17.0999 4.00933L16.9186 5.036C16.3076 4.98551 15.6935 4.98551 15.0826 5.036L14.9012 4.00933C14.8807 3.87794 14.8343 3.75195 14.7645 3.63874C14.6948 3.52552 14.6031 3.42736 14.495 3.34999C14.3868 3.27261 14.2643 3.21759 14.1347 3.18813C14.005 3.15868 13.8707 3.15538 13.7398 3.17843C13.6088 3.20149 13.4838 3.25043 13.3719 3.3224C13.2601 3.39436 13.1638 3.48791 13.0886 3.59756C13.0133 3.70722 12.9607 3.83077 12.9338 3.961C12.9069 4.09123 12.9063 4.22552 12.9319 4.356L13.1132 5.38267C12.5159 5.544 11.9399 5.756 11.3879 6.00933L10.8679 5.108C10.8022 4.99419 10.7148 4.89442 10.6106 4.8144C10.5064 4.73438 10.3874 4.67567 10.2605 4.64162C10.1336 4.60757 10.0012 4.59885 9.87094 4.61596C9.74066 4.63307 9.61503 4.67567 9.50122 4.74133C9.38741 4.80699 9.28764 4.89443 9.20762 4.99865C9.1276 5.10286 9.06889 5.22182 9.03484 5.34873C9.00079 5.47563 8.99207 5.60801 9.00918 5.73828C9.02629 5.86856 9.06889 5.99419 9.13455 6.108L9.65722 7.012C9.15688 7.3657 8.68682 7.7604 8.25189 8.192L7.45189 7.52C7.24873 7.34938 6.98612 7.26645 6.72182 7.28945C6.45751 7.31246 6.21318 7.43951 6.04255 7.64267C5.87193 7.84582 5.789 8.10844 5.812 8.37274C5.83501 8.63704 5.96207 8.88138 6.16522 9.052L6.96522 9.72267C6.61521 10.2259 6.30792 10.7575 6.04655 11.312L5.06655 10.9547C4.81725 10.864 4.54213 10.876 4.3017 10.9882C4.06128 11.1003 3.87526 11.3034 3.78455 11.5527C3.69385 11.802 3.7059 12.0771 3.81804 12.3175C3.93019 12.5579 4.13325 12.744 4.38255 12.8347L5.36255 13.1907C5.20642 13.7834 5.10027 14.3882 5.04522 14.9987H4.00122C3.736 14.9987 3.48165 15.104 3.29411 15.2916C3.10658 15.4791 3.00122 15.7335 3.00122 15.9987C3.00122 16.2639 3.10658 16.5182 3.29411 16.7058C3.48165 16.8933 3.736 16.9987 4.00122 16.9987H5.04522C5.10122 17.6173 5.20789 18.2213 5.36255 18.8067L4.38255 19.164C4.13325 19.2547 3.93019 19.4407 3.81804 19.6812C3.7059 19.9216 3.69385 20.1967 3.78455 20.446C3.87526 20.6953 4.06128 20.8984 4.3017 21.0105C4.54213 21.1227 4.81725 21.1347 5.06655 21.044L6.04655 20.6867C6.30922 21.2427 6.61722 21.7747 6.96655 22.2747L6.16655 22.9467C5.96553 23.1176 5.84023 23.3611 5.81797 23.6241C5.79571 23.887 5.87829 24.1481 6.04772 24.3505C6.21714 24.5528 6.45967 24.6799 6.72245 24.7042C6.98523 24.7285 7.24694 24.6479 7.45055 24.48L8.25189 23.8067C8.68655 24.2373 9.15722 24.6333 9.65722 24.9867L9.13455 25.8933C9.00195 26.1232 8.96608 26.3963 9.03484 26.6526C9.10361 26.9089 9.27137 27.1274 9.50122 27.26C9.73108 27.3926 10.0042 27.4285 10.2605 27.3597C10.5168 27.291 10.7353 27.1232 10.8679 26.8933L11.3879 25.988C11.9399 26.244 12.5172 26.4547 13.1132 26.616L12.9319 27.6427C12.8893 27.9023 12.9508 28.1682 13.103 28.3828C13.2551 28.5974 13.4857 28.7434 13.7447 28.7891C14.0038 28.8349 14.2704 28.7768 14.4869 28.6273C14.7034 28.4779 14.8522 28.2491 14.9012 27.9907L15.0839 26.9613C15.6944 27.0119 16.308 27.0119 16.9186 26.9613L17.0999 27.9907C17.1204 28.1221 17.1668 28.248 17.2366 28.3613C17.3063 28.4745 17.398 28.5726 17.5061 28.65C17.6143 28.7274 17.7368 28.7824 17.8664 28.8119C17.9961 28.8413 18.1304 28.8446 18.2613 28.8216C18.3923 28.7985 18.5173 28.7496 18.6292 28.6776C18.741 28.6056 18.8373 28.5121 18.9126 28.4024C18.9878 28.2928 19.0404 28.1692 19.0673 28.039C19.0942 27.9088 19.0948 27.7745 19.0692 27.644L18.8879 26.616C19.4796 26.4559 20.0567 26.2463 20.6132 25.9893L21.1346 26.892C21.2672 27.1219 21.4856 27.2896 21.7419 27.3584C21.9982 27.4271 22.2714 27.3913 22.5012 27.2587C22.7311 27.1261 22.8988 26.9076 22.9676 26.6513C23.0364 26.395 23.0005 26.1219 22.8679 25.892L22.3439 24.9867C22.8442 24.633 23.3143 24.2383 23.7492 23.8067L24.5506 24.4787C24.7539 24.6491 25.0166 24.7318 25.2809 24.7086C25.5452 24.6853 25.7894 24.558 25.9599 24.3547C26.1303 24.1513 26.213 23.8886 26.1898 23.6243C26.1665 23.36 26.0392 23.1158 25.8359 22.9453L25.0359 22.2747C25.3839 21.7747 25.6919 21.2427 25.9559 20.6867L26.9359 21.0427C27.0593 21.0875 27.1904 21.1076 27.3216 21.1017C27.4528 21.0959 27.5816 21.0643 27.7005 21.0087C27.8195 20.9531 27.9264 20.8746 28.015 20.7777C28.1037 20.6808 28.1724 20.5674 28.2172 20.444C28.262 20.3206 28.2821 20.1895 28.2763 20.0583C28.2705 19.9271 28.2389 19.7983 28.1833 19.6793C28.1277 19.5604 28.0492 19.4535 27.9523 19.3648C27.8554 19.2762 27.742 19.2075 27.6186 19.1627L26.6399 18.8067C26.7932 18.2213 26.8999 17.6173 26.9559 16.9987H28.0012L27.9999 17ZM24.4572 12.92C24.0943 11.9209 23.5571 10.9942 22.8706 10.1827C22.1858 9.37466 21.3644 8.6932 20.4439 8.16933C19.0897 7.399 17.5578 6.99591 15.9999 7C15.4521 6.99945 14.9055 7.04854 14.3666 7.14667C13.3574 7.33187 12.3876 7.68955 11.4999 8.204C9.68933 9.25276 8.29835 10.8968 7.56389 12.856C7.5509 12.9006 7.53486 12.9443 7.51589 12.9867C7.1735 13.9543 6.99942 14.9735 7.00122 16C6.99951 17.5781 7.41339 19.1288 8.20123 20.4962C8.98907 21.8636 10.1231 22.9993 11.4892 23.7893L11.5012 23.796C12.4009 24.317 13.3845 24.6771 14.4079 24.86L14.4372 24.864C15.4819 25.0471 16.5505 25.0453 17.5946 24.8587C18.6306 24.6741 19.6258 24.308 20.5346 23.7773C21.4247 23.2565 22.2193 22.5873 22.8839 21.7987L22.8959 21.7853L22.9079 21.772C23.5915 20.9543 24.1242 20.0216 24.4812 19.0173C24.8186 18.0747 25.0012 17.0587 25.0012 16C25.0012 14.9499 24.817 13.9079 24.4572 12.9213V12.92Z" fill="#4A5C38"/>
</svg>
