<svg width="32" height="32" viewBox="0 0 32 32" fill="none" xmlns="http://www.w3.org/2000/svg">
<path d="M17.099 4.00949C17.1947 3.46557 17.7139 3.10254 18.2578 3.19829C18.8014 3.29426 19.1646 3.81217 19.069 4.35584L18.8867 5.3884C19.4783 5.54935 20.055 5.75813 20.6107 6.0147L21.1354 5.10715C21.4114 4.62878 22.0229 4.464 22.5013 4.73996C22.9796 5.0159 23.143 5.6275 22.8672 6.10584L22.3411 7.016C22.8386 7.36713 23.3109 7.75855 23.7487 8.19308L24.5508 7.52121C24.9739 7.16626 25.6046 7.22058 25.9596 7.6436C26.3146 8.06668 26.259 8.69747 25.8359 9.05246L25.0312 9.72694C25.3812 10.2308 25.6904 10.7595 25.9505 11.3116L26.9349 10.9548C27.4538 10.766 28.0286 11.0336 28.2174 11.5525C28.4062 12.0714 28.1386 12.6461 27.6198 12.835L26.6328 13.1931C26.7886 13.7832 26.8972 14.3871 26.9531 15.0004H28C28.5523 15.0004 29 15.4481 29 16.0004C28.9998 16.5525 28.5522 17.0004 28 17.0004H26.9531C26.8972 17.6127 26.7883 18.2158 26.6328 18.8051L27.6198 19.1644C28.1383 19.3534 28.406 19.927 28.2174 20.4457C28.0286 20.9647 27.4539 21.2322 26.9349 21.0433L25.9505 20.6853C25.6902 21.2381 25.3816 21.768 25.0312 22.2725L25.8346 22.947C26.2576 23.3019 26.3131 23.9327 25.9583 24.3558C25.6034 24.7789 24.9726 24.8343 24.5495 24.4795L23.7474 23.8064C23.3098 24.2407 22.8384 24.6325 22.3411 24.9834L22.8659 25.8923C23.1419 26.3706 22.9782 26.9821 22.5 27.2582C22.0218 27.5342 21.4103 27.3704 21.1341 26.8923L20.6094 25.9848C20.054 26.2411 19.478 26.4502 18.8867 26.6111L19.069 27.6436C19.1647 28.1874 18.8015 28.7065 18.2578 28.8025C17.7141 28.8982 17.1949 28.5349 17.099 27.9913L16.9167 26.9574C16.6128 26.9828 16.3072 27.0004 16 27.0004C15.6928 27.0004 15.3872 26.9828 15.0833 26.9574L14.9023 27.9913C14.8064 28.5349 14.2872 28.8982 13.7435 28.8025C13.1998 28.7065 12.8366 28.1874 12.9323 27.6436L13.1133 26.6111C12.5217 26.4501 11.945 26.2413 11.3893 25.9848L10.8672 26.8936C10.591 27.3716 9.9795 27.5354 9.5013 27.2595C9.02311 26.9834 8.85947 26.3719 9.13542 25.8936L9.65885 24.9848C9.1614 24.6337 8.69039 24.2408 8.2526 23.8064L7.45052 24.4795C7.0273 24.8343 6.39647 24.779 6.04167 24.3558C5.68691 23.9326 5.74224 23.3018 6.16536 22.947L6.96745 22.2738C6.61655 21.7686 6.30742 21.2376 6.04688 20.684L5.06641 21.042C4.5474 21.2309 3.97268 20.9634 3.78385 20.4444C3.59531 19.9257 3.86299 19.3521 4.38151 19.1631L5.36589 18.8051C5.21045 18.2159 5.10277 17.6126 5.04688 17.0004H4C3.44784 17.0004 3.0002 16.5525 3 16.0004C3 15.4481 3.44772 15.0004 4 15.0004H5.04688C5.10285 14.3868 5.20997 13.7821 5.36589 13.1918L4.38281 12.8337C3.86406 12.6445 3.59736 12.0713 3.78646 11.5525C3.97559 11.0336 4.54888 10.7658 5.06771 10.9548L6.04818 11.3129C6.30873 10.7596 6.61796 10.2292 6.96875 9.72433L6.16536 9.05116C5.74248 8.6963 5.68698 8.06542 6.04167 7.6423C6.39649 7.21944 7.0274 7.16402 7.45052 7.5186L8.2526 8.19048C8.68976 7.75679 9.16092 7.36525 9.65755 7.0147L9.13411 6.10715C8.85805 5.62894 9.02193 5.01747 9.5 4.74126C9.9783 4.46514 10.5898 4.62884 10.8659 5.10715L11.3893 6.0147C11.9451 5.75808 12.5216 5.54806 13.1133 5.38709L12.9323 4.35584C12.8367 3.81218 13.1999 3.29428 13.7435 3.19829C14.2874 3.10254 14.8066 3.46557 14.9023 4.00949L15.0833 5.04074C15.3872 5.01534 15.6928 5.00037 16 5.00037C16.3072 5.00037 16.6128 5.01534 16.9167 5.04074L17.099 4.00949ZM12.3958 24.2439C13.5221 24.7362 14.747 25.0004 16 25.0004C18.3869 25.0004 20.6768 24.0515 22.3646 22.3637C23.8146 20.9135 24.7156 19.0189 24.9414 17.0004H16.5794L12.3958 24.2439ZM10.6615 8.75428C10.3002 9.02046 9.9566 9.31461 9.63542 9.63579C7.94771 11.3236 7 13.6135 7 16.0004C7.0001 18.387 7.94797 20.676 9.63542 22.3637C9.95677 22.685 10.3013 22.9789 10.6628 23.2452L14.8464 16.0017L10.6615 8.75428ZM16 7.00037C14.7467 7.00037 13.521 7.26295 12.3945 7.75558L16.5768 15.0004H24.9414C24.7157 12.9814 23.8149 11.0862 22.3646 9.63579C20.6768 7.94796 18.3869 7.00037 16 7.00037Z" fill="#333333"/>
</svg>
