<svg preserveAspectRatio="none" width="100%" height="100%" overflow="visible" style="display: block;" viewBox="0 0 24 26.6667" fill="none" xmlns="http://www.w3.org/2000/svg">
<path id="Vector" d="M5.52233 18.1627C4.89256 17.5302 4.57767 16.7561 4.57767 15.8403C4.57767 14.9246 4.89389 14.1519 5.52633 13.5223C6.15856 12.8926 6.93267 12.5777 7.84867 12.5777C8.76444 12.5777 9.53711 12.8939 10.1667 13.5263C10.7962 14.1586 11.111 14.9327 11.111 15.8487C11.111 16.7644 10.7949 17.5371 10.1627 18.1667C9.53022 18.7962 8.75611 19.111 7.84033 19.111C6.92456 19.111 6.15189 18.7949 5.52233 18.1627ZM2.22233 26.6667C1.62233 26.6667 1.10189 26.4463 0.661 26.0057C0.220333 25.5648 0 25.0443 0 24.4443V4.44433C0 3.84433 0.220333 3.324 0.661 2.88333C1.10189 2.44267 1.62233 2.22233 2.22233 2.22233H4.111V0H6.44433V2.22233H17.5557V0H19.889V2.22233H21.7777C22.3777 2.22233 22.8981 2.44267 23.339 2.88333C23.7797 3.324 24 3.84433 24 4.44433V24.4443C24 25.0443 23.7797 25.5648 23.339 26.0057C22.8981 26.4463 22.3777 26.6667 21.7777 26.6667H2.22233ZM2.22233 24.4443H21.7777V10.4443H2.22233V24.4443Z" fill="#201F2D"/>
</svg>
