<svg preserveAspectRatio="none" width="100%" height="100%" overflow="visible" style="display: block;" viewBox="0 0 40 40" fill="none" xmlns="http://www.w3.org/2000/svg">
<g id="mood_24dp_FFCB66_FILL1_wght400_GRAD0_opsz24 1">
<path id="Vector" d="M25.8333 18.3333C26.5278 18.3333 27.1181 18.0903 27.6042 17.6042C28.0903 17.1181 28.3333 16.5278 28.3333 15.8333C28.3333 15.1389 28.0903 14.5486 27.6042 14.0625C27.1181 13.5764 26.5278 13.3333 25.8333 13.3333C25.1389 13.3333 24.5486 13.5764 24.0625 14.0625C23.5764 14.5486 23.3333 15.1389 23.3333 15.8333C23.3333 16.5278 23.5764 17.1181 24.0625 17.6042C24.5486 18.0903 25.1389 18.3333 25.8333 18.3333ZM14.1667 18.3333C14.8611 18.3333 15.4514 18.0903 15.9375 17.6042C16.4236 17.1181 16.6667 16.5278 16.6667 15.8333C16.6667 15.1389 16.4236 14.5486 15.9375 14.0625C15.4514 13.5764 14.8611 13.3333 14.1667 13.3333C13.4722 13.3333 12.8819 13.5764 12.3958 14.0625C11.9097 14.5486 11.6667 15.1389 11.6667 15.8333C11.6667 16.5278 11.9097 17.1181 12.3958 17.6042C12.8819 18.0903 13.4722 18.3333 14.1667 18.3333ZM25.1458 27.5625C26.6875 26.4931 27.8056 25.0833 28.5 23.3333H11.5C12.1944 25.0833 13.3125 26.4931 14.8542 27.5625C16.3958 28.6319 18.1111 29.1667 20 29.1667C21.8889 29.1667 23.6042 28.6319 25.1458 27.5625ZM13.5 35.3542C11.4722 34.4792 9.70833 33.2917 8.20833 31.7917C6.70833 30.2917 5.52083 28.5278 4.64583 26.5C3.77083 24.4722 3.33333 22.3056 3.33333 20C3.33333 17.6944 3.77083 15.5278 4.64583 13.5C5.52083 11.4722 6.70833 9.70833 8.20833 8.20833C9.70833 6.70833 11.4722 5.52083 13.5 4.64583C15.5278 3.77083 17.6944 3.33333 20 3.33333C22.3056 3.33333 24.4722 3.77083 26.5 4.64583C28.5278 5.52083 30.2917 6.70833 31.7917 8.20833C33.2917 9.70833 34.4792 11.4722 35.3542 13.5C36.2292 15.5278 36.6667 17.6944 36.6667 20C36.6667 22.3056 36.2292 24.4722 35.3542 26.5C34.4792 28.5278 33.2917 30.2917 31.7917 31.7917C30.2917 33.2917 28.5278 34.4792 26.5 35.3542C24.4722 36.2292 22.3056 36.6667 20 36.6667C17.6944 36.6667 15.5278 36.2292 13.5 35.3542Z" fill="#FFCB66"/>
</g>
</svg>
