<svg preserveAspectRatio="none" width="100%" height="100%" overflow="visible" style="display: block;" viewBox="0 0 20.0335 20" fill="none" xmlns="http://www.w3.org/2000/svg">
<path id="Vector" d="M7.56675 20L7.1 16.8333C6.81667 16.7278 6.52642 16.5889 6.22925 16.4168C5.93208 16.2444 5.664 16.0638 5.425 15.875L2.46675 17.1918L0 12.875L2.6585 10.9083C2.63067 10.7694 2.614 10.6181 2.6085 10.4543C2.60283 10.2903 2.6 10.1388 2.6 10C2.6 9.86117 2.60283 9.70975 2.6085 9.54575C2.614 9.38192 2.63067 9.23058 2.6585 9.09175L0 7.125L2.46675 2.80825L5.425 4.125C5.664 3.93617 5.9335 3.75558 6.2335 3.58325C6.5335 3.41108 6.82233 3.27775 7.1 3.18325L7.56675 0H12.4668L12.9335 3.16675C13.2168 3.27225 13.5098 3.40833 13.8125 3.575C14.1153 3.74167 14.3807 3.925 14.6085 4.125L17.5668 2.80825L20.0335 7.125L17.375 9.05825C17.4028 9.20825 17.4195 9.36525 17.425 9.52925C17.4307 9.69308 17.4335 9.85 17.4335 10C17.4335 10.15 17.4307 10.3042 17.425 10.4625C17.4195 10.6208 17.4001 10.775 17.3668 10.925L20.025 12.875L17.5585 17.1918L14.6085 15.875C14.3695 16.0638 14.1028 16.2472 13.8085 16.425C13.514 16.6028 13.2223 16.7389 12.9335 16.8333L12.4668 20H7.56675ZM10.0335 13.3333C10.9557 13.3333 11.7418 13.0083 12.3918 12.3583C13.0418 11.7083 13.3668 10.9222 13.3668 10C13.3668 9.07783 13.0418 8.29175 12.3918 7.64175C11.7418 6.99175 10.9557 6.66675 10.0335 6.66675C9.10567 6.66675 8.31817 6.99175 7.671 7.64175C7.02367 8.29175 6.7 9.07783 6.7 10C6.7 10.9222 7.02367 11.7083 7.671 12.3583C8.31817 13.0083 9.10567 13.3333 10.0335 13.3333Z" fill="#201F2D"/>
</svg>
