<svg preserveAspectRatio="none" width="100%" height="100%" overflow="visible" style="display: block;" viewBox="0 0 40 40" fill="none" xmlns="http://www.w3.org/2000/svg">
<g id="water_drop_24dp_EA435E_FILL1_wght400_GRAD0_opsz24 1">
<path id="Vector" d="M20.4583 31.6667C20.7917 31.6389 21.0764 31.5069 21.3125 31.2708C21.5486 31.0347 21.6667 30.75 21.6667 30.4167C21.6667 30.0278 21.5417 29.7153 21.2917 29.4792C21.0417 29.2431 20.7222 29.1389 20.3333 29.1667C19.1944 29.25 17.9861 28.9375 16.7083 28.2292C15.4306 27.5208 14.625 26.2361 14.2917 24.375C14.2361 24.0694 14.0903 23.8194 13.8542 23.625C13.6181 23.4306 13.3472 23.3333 13.0417 23.3333C12.6528 23.3333 12.3333 23.4792 12.0833 23.7708C11.8333 24.0625 11.75 24.4028 11.8333 24.7917C12.3056 27.3194 13.4167 29.125 15.1667 30.2083C16.9167 31.2917 18.6806 31.7778 20.4583 31.6667ZM10.4792 32.75C7.9375 30.1389 6.66667 26.8889 6.66667 23C6.66667 20.2222 7.77083 17.2014 9.97917 13.9375C12.1875 10.6736 15.5278 7.13889 20 3.33333C24.4722 7.13889 27.8125 10.6736 30.0208 13.9375C32.2292 17.2014 33.3333 20.2222 33.3333 23C33.3333 26.8889 32.0625 30.1389 29.5208 32.75C26.9792 35.3611 23.8056 36.6667 20 36.6667C16.1944 36.6667 13.0208 35.3611 10.4792 32.75Z" fill="#EA435E"/>
</g>
</svg>
